# xmcd CD database file
#
# Track frame offsets:
#	150
#	17440
#	31805
#	49759
#	66565
#	81120
#	93519
#	110490
#	128295
#	147387
#
# Disc length: 2233 seconds
#
# Revision: 0
# Processed by: cddbd v1.5.2PL0 Copyright (c) Steve Scherf et al.
# Submitted via: CDex 2.07
#
DISCID=7d08b70a
DTITLE=Little Wings - Ropes In Paradise
DYEAR=2019
DGENRE=Country
TTITLE0=I Was High
TTITLE1=Goodbye Easy Street
TTITLE2=Mexicali Blues
TTITLE3=Daddy Frank
TTITLE4=Wheels
TTITLE5=Miller's Cave
TTITLE6=Wishing All These Old Things Were Now
TTITLE7=No Lonesome Time
TTITLE8=She Believes In Me
TTITLE9=Torn And Frayed
EXTD=YEAR: 2019
EXTT0=
EXTT1=
EXTT2=
EXTT3=
EXTT4=
EXTT5=
EXTT6=
EXTT7=
EXTT8=
EXTT9=
PLAYORDER=
